<svg version="1.1" id="Layer_1" xmlns="http://www.w3.org/2000/svg" xmlns:xlink="http://www.w3.org/1999/xlink" x="0px" y="0px"
	 width="100%" viewBox="0 0 128 128" enable-background="new 0 0 128 128" xml:space="preserve">
<path fill="#FFFFFF" opacity="1.000000" stroke="none" 
	d="
M1.000000,49.000000 
	C1.000000,33.031303 1.000000,17.062605 1.000000,1.046954 
	C43.551846,1.046954 86.103760,1.046954 129.000000,1.046954 
	C129.000000,16.685881 129.000000,32.374283 128.599579,48.531349 
	C126.484840,49.941162 124.770515,50.882309 122.961563,51.875401 
	C122.827599,51.449902 122.659767,49.971592 121.930244,48.862877 
	C121.184990,47.730255 119.888451,46.960381 118.833244,46.031704 
	C118.392822,47.351574 117.685959,48.650997 117.582718,49.996735 
	C117.466446,51.512421 117.894035,53.069836 118.057938,54.390610 
	C115.925087,53.020382 113.902061,51.720707 111.879028,50.421032 
	C111.327148,50.949070 110.775261,51.477112 110.223381,52.005154 
	C111.912872,54.934238 113.894981,57.738926 115.208176,60.827984 
	C116.478523,63.816250 118.200653,67.278030 117.734909,70.216507 
	C116.213638,79.814491 112.014175,88.409897 105.405998,95.570206 
	C105.144348,95.206100 105.031067,95.066788 104.959595,94.546082 
	C109.637383,84.901077 110.322151,75.156303 107.981949,65.245934 
	C106.114761,57.338696 103.703316,49.559971 101.292130,40.852676 
	C100.330101,41.910641 99.018639,43.352890 97.686234,44.818169 
	C93.441460,42.675350 91.158836,35.259689 83.043587,38.375153 
	C87.768219,42.781380 92.179779,46.070972 95.504951,50.229290 
	C98.811638,54.364498 101.026611,59.372684 103.361931,63.382687 
	C100.933464,64.512108 99.479759,65.188187 98.026047,65.864273 
	C99.137917,66.928902 100.437363,67.859184 101.318367,69.089172 
	C102.693848,71.009499 104.773186,73.127319 104.784821,75.171547 
	C104.806633,79.000999 103.561241,82.837662 103.014641,85.755005 
	C100.864021,85.755005 99.304771,85.755005 97.745529,85.755005 
	C98.099533,87.277092 98.547813,88.784988 98.779648,90.325462 
	C98.989281,91.718437 99.482254,93.407852 98.931389,94.505325 
	C97.797218,96.764923 96.049583,98.716606 94.405998,100.570206 
	C94.144348,100.206100 94.031067,100.066788 93.956055,99.496544 
	C94.328842,94.004112 94.960190,88.939751 94.911453,83.881935 
	C94.865959,79.160751 94.098045,74.446533 93.584709,69.064499 
	C92.848808,69.223663 90.949120,69.634537 88.671982,70.127052 
	C82.477539,62.492901 74.143929,58.169090 61.764694,59.232391 
	C63.672829,61.414986 64.846161,62.757084 66.292458,64.411407 
	C65.962067,64.883904 64.786110,65.960434 64.407028,67.267990 
	C63.977291,68.750282 64.261452,70.439560 64.235222,72.038841 
	C65.639420,71.374283 67.221542,70.929901 68.395844,69.980873 
	C69.486290,69.099609 69.939987,67.412743 71.048233,66.576454 
	C72.045837,65.823662 73.835655,65.067360 74.789490,65.468773 
	C87.968079,71.014847 95.921089,88.575562 86.821327,101.431587 
	C84.998138,100.826736 83.290932,100.260361 80.127754,99.210968 
	C81.364967,102.506989 82.099876,104.464844 82.909241,106.621040 
	C81.468559,107.978928 80.119675,109.889709 78.277832,110.775742 
	C76.904999,111.436150 74.181129,111.479469 73.286880,110.578629 
	C68.412041,105.667961 63.917702,100.379570 59.292484,95.221100 
	C59.961288,95.001427 60.630096,94.781746 61.298901,94.562073 
	C61.719681,92.391098 62.140465,90.220131 62.561245,88.049156 
	C61.107861,88.049156 59.654472,88.049156 57.812794,88.049156 
	C53.715019,74.694427 56.476231,60.927513 59.562218,46.339542 
	C51.140362,48.452343 54.467129,55.784332 51.497742,59.630611 
	C51.052151,58.969894 50.762867,58.050220 50.160515,57.741615 
	C48.485519,56.883465 45.892582,55.183163 45.070251,55.774281 
	C42.283413,57.777538 45.137123,59.224022 46.313183,60.853733 
	C48.957859,64.518570 51.602757,67.908546 51.153069,73.162170 
	C50.380219,82.191246 52.646580,90.793129 56.932163,98.858276 
	C58.044388,100.951416 60.421837,103.027458 58.107094,105.932915 
	C57.800495,106.317764 59.265133,108.726761 59.325054,108.703346 
	C64.362282,106.734200 65.283478,112.575966 69.356102,113.254845 
	C62.033356,116.751801 52.324383,112.861702 45.484722,104.639732 
	C45.870380,102.459145 46.176044,100.730888 46.481705,99.002632 
	C44.768303,98.766975 43.054901,98.531326 39.998356,98.110939 
	C39.998356,94.115501 39.450005,89.501411 40.149223,85.084846 
	C40.880260,80.467293 42.811134,76.039703 44.217525,71.529076 
	C43.885384,71.185181 43.553242,70.841293 43.221096,70.497398 
	C39.855835,72.430267 36.490574,74.363129 34.273594,75.636475 
	C34.916924,84.287079 35.498413,92.106140 35.905430,100.130371 
	C35.627419,100.482239 35.523880,100.628937 35.153137,100.547165 
	C29.794422,92.202866 21.302622,84.633347 30.838280,74.180984 
	C31.339304,73.631798 30.762135,72.098976 30.674780,70.850739 
	C28.930389,71.060783 27.560131,71.225784 26.193403,71.390350 
	C24.681734,61.563152 32.991684,54.965656 35.617519,45.229435 
	C32.576725,46.268681 30.854385,46.857319 29.141655,47.442677 
	C29.037880,46.070473 28.930027,44.644341 28.821817,43.213486 
	C27.446093,43.213486 26.364782,43.213486 25.353779,43.213486 
	C25.012363,47.674145 25.524035,52.201790 24.209595,56.116238 
	C19.794676,69.264000 19.353073,82.107574 24.905434,95.130371 
	C24.627430,95.482246 24.523897,95.628944 24.152290,95.545380 
	C20.792152,89.924698 17.302170,84.718048 14.706760,79.098251 
	C11.311968,71.747581 10.501571,64.352005 16.729191,57.605396 
	C18.156368,56.059280 18.554928,53.563671 19.426884,51.505043 
	C18.915382,51.119175 18.403879,50.733303 17.892378,50.347435 
	C15.993917,51.698879 14.095457,53.050320 12.349528,54.293182 
	C11.207810,44.203293 16.841448,35.535648 27.446259,31.120512 
	C28.810308,30.552614 29.809860,29.109217 30.978260,28.071383 
	C29.343777,27.407555 27.709295,26.743727 25.869629,25.905434 
	C25.517752,25.627430 25.371054,25.523895 25.469423,25.138723 
	C26.619671,23.100231 27.524853,21.343374 28.430035,19.586517 
	C27.851423,19.106216 27.272812,18.625914 26.694201,18.145611 
	C24.647585,19.695412 22.600969,21.245213 20.405989,22.570221 
	C20.144346,22.206108 20.031065,22.066792 19.955929,21.526623 
	C19.212105,19.754908 18.430140,18.384041 17.648174,17.013176 
	C16.765150,18.281145 15.436386,19.432734 15.070107,20.835619 
	C12.310709,31.404366 9.740648,42.022545 7.368183,51.589844 
	C4.781350,50.537819 2.890674,49.768909 1.000000,49.000000 
M103.130486,26.005978 
	C101.763901,26.620184 100.333191,27.137573 99.100494,27.953962 
	C98.917572,28.075111 99.454536,30.188631 100.020210,30.396641 
	C106.724487,32.861950 113.208694,35.576992 117.316154,42.407814 
	C118.293869,40.639778 119.138466,39.092651 118.870689,37.770866 
	C117.765213,32.314022 116.418358,26.899210 114.945328,21.527880 
	C114.505028,19.922352 113.365334,18.508623 112.546066,17.007023 
	C111.724007,18.646410 110.901947,20.285797 109.730957,22.335545 
	C109.627411,22.482241 109.523872,22.628935 108.902878,22.340191 
	C103.788460,18.029116 100.172585,11.427316 91.883904,11.564569 
	C92.359062,13.350424 93.123016,14.898254 94.297791,16.013226 
	C97.708565,19.250387 101.284096,22.313950 104.345421,25.742369 
	C104.206100,25.855650 104.066788,25.968929 103.130486,26.005978 
M43.024979,36.466740 
	C40.663410,38.532814 35.740391,38.690731 37.537388,44.488503 
	C39.499249,43.774166 41.301334,43.224377 43.015396,42.473614 
	C47.833408,40.363297 52.452255,37.560047 57.467609,36.220913 
	C60.901119,35.304146 61.259350,34.003365 60.589966,29.918732 
	C54.644455,32.065899 49.153786,34.048805 43.024979,36.466740 
z"/>
<path fill="#000000" opacity="1.000000" stroke="none" 
	d="
M105.554367,95.794983 
	C112.014175,88.409897 116.213638,79.814491 117.734909,70.216507 
	C118.200653,67.278030 116.478523,63.816250 115.208176,60.827984 
	C113.894981,57.738926 111.912872,54.934238 110.223381,52.005154 
	C110.775261,51.477112 111.327148,50.949070 111.879028,50.421032 
	C113.902061,51.720707 115.925087,53.020382 118.057938,54.390610 
	C117.894035,53.069836 117.466446,51.512421 117.582718,49.996735 
	C117.685959,48.650997 118.392822,47.351574 118.833244,46.031704 
	C119.888451,46.960381 121.184990,47.730255 121.930244,48.862877 
	C122.659767,49.971592 122.827599,51.449902 122.961563,51.875401 
	C124.770515,50.882309 126.484840,49.941162 128.599579,49.000008 
	C129.000000,50.388889 129.000000,51.777779 128.640656,53.688484 
	C125.027916,64.308525 121.774506,74.406746 118.824837,83.562202 
	C121.612526,83.909683 123.708435,84.170937 125.804352,84.432190 
	C124.585716,86.072464 123.658936,88.107971 122.086494,89.269119 
	C118.998833,91.549187 115.120155,92.875183 112.345634,95.437233 
	C106.943542,100.425644 102.076935,105.993942 97.331619,110.962830 
	C99.334045,111.268684 102.992973,110.915794 101.718307,115.613609 
	C95.199394,115.998329 88.728104,115.443062 82.771210,116.937782 
	C72.192093,119.592331 61.771927,119.492126 51.174759,117.991234 
	C46.044441,117.264610 40.906689,116.562378 35.752792,116.042542 
	C33.299408,115.795082 30.800398,116.000000 28.339857,116.000000 
	C26.949001,110.688156 30.958380,111.396233 33.702431,110.732582 
	C23.394880,103.956367 16.937254,92.589203 5.268366,87.563614 
	C4.602813,87.276970 4.066894,85.038231 4.495852,84.322174 
	C4.931471,83.594986 6.654885,83.347755 7.783017,83.415062 
	C8.763625,83.473579 9.700517,84.264763 11.309634,85.051308 
	C10.414936,82.234985 9.614530,80.029915 9.014932,77.771530 
	C6.863981,69.669922 6.084003,61.111919 1.000000,54.000000 
	C1.000000,52.611111 1.000000,51.222221 1.000000,49.416668 
	C2.890674,49.768909 4.781350,50.537819 7.368183,51.589844 
	C9.740648,42.022545 12.310709,31.404366 15.070107,20.835619 
	C15.436386,19.432734 16.765150,18.281145 17.648174,17.013176 
	C18.430140,18.384041 19.212105,19.754908 19.675535,21.623249 
	C19.316555,22.660381 19.276110,23.200039 19.235666,23.739695 
	C19.675228,23.424801 20.114790,23.109907 20.554352,22.795013 
	C22.600969,21.245213 24.647585,19.695412 26.694201,18.145611 
	C27.272812,18.625914 27.851423,19.106216 28.430035,19.586517 
	C27.524853,21.343374 26.619671,23.100231 25.246655,25.329979 
	C24.647152,26.138189 24.515486,26.473507 24.383820,26.808825 
	C24.947481,26.565849 25.511147,26.322874 26.074812,26.079899 
	C27.709295,26.743727 29.343777,27.407555 30.978260,28.071383 
	C29.809860,29.109217 28.810308,30.552614 27.446259,31.120512 
	C16.841448,35.535648 11.207810,44.203293 12.349528,54.293182 
	C14.095457,53.050320 15.993917,51.698879 17.892378,50.347435 
	C18.403879,50.733303 18.915382,51.119175 19.426884,51.505043 
	C18.554928,53.563671 18.156368,56.059280 16.729191,57.605396 
	C10.501571,64.352005 11.311968,71.747581 14.706760,79.098251 
	C17.302170,84.718048 20.792152,89.924698 24.343544,95.768150 
	C25.138193,96.352844 25.473509,96.484512 25.808826,96.616180 
	C25.565853,96.052521 25.322878,95.488861 25.079903,94.925194 
	C19.353073,82.107574 19.794676,69.264000 24.209595,56.116238 
	C25.524035,52.201790 25.012363,47.674145 25.353779,43.213486 
	C26.364782,43.213486 27.446093,43.213486 28.821817,43.213486 
	C28.930027,44.644341 29.037880,46.070473 29.141655,47.442677 
	C30.854385,46.857319 32.576725,46.268681 35.617519,45.229435 
	C32.991684,54.965656 24.681734,61.563152 26.193403,71.390350 
	C27.560131,71.225784 28.930389,71.060783 30.674780,70.850739 
	C30.762135,72.098976 31.339304,73.631798 30.838280,74.180984 
	C21.302622,84.633347 29.794422,92.202866 35.344395,100.769928 
	C36.138180,101.352844 36.473495,101.484520 36.808815,101.616196 
	C36.565845,101.052528 36.322876,100.488861 36.079903,99.925194 
	C35.498413,92.106140 34.916924,84.287079 34.273594,75.636475 
	C36.490574,74.363129 39.855835,72.430267 43.221096,70.497398 
	C43.553242,70.841293 43.885384,71.185181 44.217525,71.529076 
	C42.811134,76.039703 40.880260,80.467293 40.149223,85.084846 
	C39.450005,89.501411 39.998356,94.115501 39.998356,98.110939 
	C43.054901,98.531326 44.768303,98.766975 46.481705,99.002632 
	C46.176044,100.730888 45.870380,102.459145 45.484722,104.639732 
	C52.324383,112.861702 62.033356,116.751801 69.356102,113.254845 
	C65.283478,112.575966 64.362282,106.734200 59.325054,108.703346 
	C59.265133,108.726761 57.800495,106.317764 58.107094,105.932915 
	C60.421837,103.027458 58.044388,100.951416 56.932163,98.858276 
	C52.646580,90.793129 50.380219,82.191246 51.153069,73.162170 
	C51.602757,67.908546 48.957859,64.518570 46.313183,60.853733 
	C45.137123,59.224022 42.283413,57.777538 45.070251,55.774281 
	C45.892582,55.183163 48.485519,56.883465 50.160515,57.741615 
	C50.762867,58.050220 51.052151,58.969894 51.497742,59.630611 
	C54.467129,55.784332 51.140362,48.452343 59.562218,46.339542 
	C56.476231,60.927513 53.715019,74.694427 57.812794,88.049156 
	C59.654472,88.049156 61.107861,88.049156 62.561245,88.049156 
	C62.140465,90.220131 61.719681,92.391098 61.298901,94.562073 
	C60.630096,94.781746 59.961288,95.001427 59.292484,95.221100 
	C63.917702,100.379570 68.412041,105.667961 73.286880,110.578629 
	C74.181129,111.479469 76.904999,111.436150 78.277832,110.775742 
	C80.119675,109.889709 81.468559,107.978928 82.909241,106.621040 
	C82.099876,104.464844 81.364967,102.506989 80.127754,99.210968 
	C83.290932,100.260361 84.998138,100.826736 86.821327,101.431587 
	C95.921089,88.575562 87.968079,71.014847 74.789490,65.468773 
	C73.835655,65.067360 72.045837,65.823662 71.048233,66.576454 
	C69.939987,67.412743 69.486290,69.099609 68.395844,69.980873 
	C67.221542,70.929901 65.639420,71.374283 64.235222,72.038841 
	C64.261452,70.439560 63.977291,68.750282 64.407028,67.267990 
	C64.786110,65.960434 65.962067,64.883904 66.292458,64.411407 
	C64.846161,62.757084 63.672829,61.414986 61.764694,59.232391 
	C74.143929,58.169090 82.477539,62.492901 88.671982,70.127052 
	C90.949120,69.634537 92.848808,69.223663 93.584709,69.064499 
	C94.098045,74.446533 94.865959,79.160751 94.911453,83.881935 
	C94.960190,88.939751 94.328842,94.004112 93.675659,99.593170 
	C93.316566,100.660385 93.276123,101.200043 93.235672,101.739708 
	C93.675240,101.424797 94.114807,101.109894 94.554375,100.794991 
	C96.049583,98.716606 97.797218,96.764923 98.931389,94.505325 
	C99.482254,93.407852 98.989281,91.718437 98.779648,90.325462 
	C98.547813,88.784988 98.099533,87.277092 97.745529,85.755005 
	C99.304771,85.755005 100.864021,85.755005 103.014641,85.755005 
	C103.561241,82.837662 104.806633,79.000999 104.784821,75.171547 
	C104.773186,73.127319 102.693848,71.009499 101.318367,69.089172 
	C100.437363,67.859184 99.137917,66.928902 98.026047,65.864273 
	C99.479759,65.188187 100.933464,64.512108 103.361931,63.382687 
	C101.026611,59.372684 98.811638,54.364498 95.504951,50.229290 
	C92.179779,46.070972 87.768219,42.781380 83.043587,38.375153 
	C91.158836,35.259689 93.441460,42.675350 97.686234,44.818169 
	C99.018639,43.352890 100.330101,41.910641 101.292130,40.852676 
	C103.703316,49.559971 106.114761,57.338696 107.981949,65.245934 
	C110.322151,75.156303 109.637383,84.901077 104.679199,94.642708 
	C104.316559,95.660385 104.276115,96.200043 104.235672,96.739700 
	C104.675232,96.424797 105.114799,96.109886 105.554367,95.794983 
z"/>
<path fill="#FFFFFF" opacity="1.000000" stroke="none" 
	d="
M1.000000,54.468658 
	C6.084003,61.111919 6.863981,69.669922 9.014932,77.771530 
	C9.614530,80.029915 10.414936,82.234985 11.309634,85.051308 
	C9.700517,84.264763 8.763625,83.473579 7.783017,83.415062 
	C6.654885,83.347755 4.931471,83.594986 4.495852,84.322174 
	C4.066894,85.038231 4.602813,87.276970 5.268366,87.563614 
	C16.937254,92.589203 23.394880,103.956367 33.702431,110.732582 
	C30.958380,111.396233 26.949001,110.688156 28.339857,116.000000 
	C30.800398,116.000000 33.299408,115.795082 35.752792,116.042542 
	C40.906689,116.562378 46.044441,117.264610 51.174759,117.991234 
	C61.771927,119.492126 72.192093,119.592331 82.771210,116.937782 
	C88.728104,115.443062 95.199394,115.998329 101.718307,115.613609 
	C102.992973,110.915794 99.334045,111.268684 97.331619,110.962830 
	C102.076935,105.993942 106.943542,100.425644 112.345634,95.437233 
	C115.120155,92.875183 118.998833,91.549187 122.086494,89.269119 
	C123.658936,88.107971 124.585716,86.072464 125.804352,84.432190 
	C123.708435,84.170937 121.612526,83.909683 118.824837,83.562202 
	C121.774506,74.406746 125.027916,64.308525 128.640656,54.105148 
	C129.000000,78.960602 129.000000,103.921204 129.000000,128.940903 
	C86.440041,128.940903 43.879971,128.940903 1.000000,128.940903 
	C1.000000,104.313362 1.000000,79.625336 1.000000,54.468658 
z"/>
<path fill="#000000" opacity="1.000000" stroke="none" 
	d="
M110.079895,21.925186 
	C110.901947,20.285797 111.724007,18.646410 112.546066,17.007023 
	C113.365334,18.508623 114.505028,19.922352 114.945328,21.527880 
	C116.418358,26.899210 117.765213,32.314022 118.870689,37.770866 
	C119.138466,39.092651 118.293869,40.639778 117.316154,42.407814 
	C113.208694,35.576992 106.724487,32.861950 100.020210,30.396641 
	C99.454536,30.188631 98.917572,28.075111 99.100494,27.953962 
	C100.333191,27.137573 101.763901,26.620184 103.625610,26.324486 
	C104.660385,26.683437 105.200050,26.723881 105.739708,26.764324 
	C105.424797,26.324757 105.109894,25.885189 104.794991,25.445618 
	C101.284096,22.313950 97.708565,19.250387 94.297791,16.013226 
	C93.123016,14.898254 92.359062,13.350424 91.883904,11.564569 
	C100.172585,11.427316 103.788460,18.029116 109.352867,22.780682 
	C110.138176,23.352846 110.473495,23.484520 110.808815,23.616194 
	C110.565842,23.052525 110.322868,22.488855 110.079895,21.925186 
z"/>
<path fill="#000000" opacity="1.000000" stroke="none" 
	d="
M43.344048,36.249222 
	C49.153786,34.048805 54.644455,32.065899 60.589966,29.918732 
	C61.259350,34.003365 60.901119,35.304146 57.467609,36.220913 
	C52.452255,37.560047 47.833408,40.363297 43.015396,42.473614 
	C41.301334,43.224377 39.499249,43.774166 37.537388,44.488503 
	C35.740391,38.690731 40.663410,38.532814 43.344048,36.249222 
z"/>
<path fill="#FFFFFF" opacity="1.000000" stroke="none" 
	d="
M20.405989,22.570221 
	C20.114790,23.109907 19.675228,23.424801 19.235666,23.739695 
	C19.276110,23.200039 19.316555,22.660381 19.637394,22.024099 
	C20.031065,22.066792 20.144346,22.206108 20.405989,22.570221 
z"/>
<path fill="#FFFFFF" opacity="1.000000" stroke="none" 
	d="
M25.869629,25.905434 
	C25.511147,26.322874 24.947481,26.565849 24.383820,26.808825 
	C24.515486,26.473507 24.647152,26.138189 25.001589,25.611614 
	C25.371054,25.523895 25.517752,25.627430 25.869629,25.905434 
z"/>
<path fill="#FFFFFF" opacity="1.000000" stroke="none" 
	d="
M24.905434,95.130371 
	C25.322878,95.488861 25.565853,96.052521 25.808826,96.616180 
	C25.473509,96.484512 25.138193,96.352844 24.611622,95.998413 
	C24.523897,95.628944 24.627430,95.482246 24.905434,95.130371 
z"/>
<path fill="#FFFFFF" opacity="1.000000" stroke="none" 
	d="
M105.405991,95.570206 
	C105.114799,96.109886 104.675232,96.424797 104.235672,96.739700 
	C104.276115,96.200043 104.316559,95.660385 104.637398,95.024094 
	C105.031067,95.066788 105.144348,95.206100 105.405991,95.570206 
z"/>
<path fill="#FFFFFF" opacity="1.000000" stroke="none" 
	d="
M35.905434,100.130371 
	C36.322876,100.488861 36.565845,101.052528 36.808815,101.616196 
	C36.473495,101.484520 36.138180,101.352844 35.611603,100.998398 
	C35.523880,100.628937 35.627419,100.482239 35.905434,100.130371 
z"/>
<path fill="#FFFFFF" opacity="1.000000" stroke="none" 
	d="
M94.405998,100.570206 
	C94.114807,101.109894 93.675240,101.424797 93.235672,101.739708 
	C93.276123,101.200043 93.316566,100.660385 93.637405,100.024094 
	C94.031067,100.066788 94.144348,100.206100 94.405998,100.570206 
z"/>
<path fill="#FFFFFF" opacity="1.000000" stroke="none" 
	d="
M109.905426,22.130365 
	C110.322868,22.488855 110.565842,23.052525 110.808815,23.616194 
	C110.473495,23.484520 110.138176,23.352846 109.611603,22.998400 
	C109.523872,22.628935 109.627411,22.482241 109.905426,22.130365 
z"/>
<path fill="#FFFFFF" opacity="1.000000" stroke="none" 
	d="
M104.570206,25.593994 
	C105.109894,25.885189 105.424797,26.324757 105.739708,26.764324 
	C105.200050,26.723881 104.660385,26.683437 104.024094,26.362600 
	C104.066788,25.968929 104.206100,25.855650 104.570206,25.593994 
z"/>
</svg>